<?xml version="1.0" encoding="UTF-8"?>
<svg width="50px" height="50px" viewBox="0 0 50 50" version="1.1" xmlns="http://www.w3.org/2000/svg" xmlns:xlink="http://www.w3.org/1999/xlink">
    <!-- Generator: Sketch 50.2 (55047) - http://www.bohemiancoding.com/sketch -->
    <title>Group 3</title>
    <desc>Created with Sketch.</desc>
    <defs></defs>
    <g id="Page-1" stroke="none" stroke-width="1" fill="none" fill-rule="evenodd">
        <g id="Desktop-HD" transform="translate(-616.000000, -179.000000)">
            <g id="Group-3" transform="translate(614.000000, 177.000000)">
                <rect id="Rectangle-3" fill="#229AFF" transform="translate(27.000000, 27.000000) rotate(-14.000000) translate(-27.000000, -27.000000) " x="5" y="5" width="44" height="44" rx="10"></rect>
                <path d="M22.5497583,39.1483742 C32.7392682,39.1483742 38.3109685,30.7068487 38.3109685,23.3879793 C38.3109685,23.1482836 38.3060768,22.9094033 38.2946627,22.6713383 C39.3765542,21.889474 40.316585,20.9143856 41.0585,19.8031437 C40.0654753,20.2442162 38.9974437,20.5417975 37.8772336,20.6755053 C39.0210872,19.9898454 39.8991559,18.9046927 40.3133238,17.6116408 C39.2428464,18.2459374 38.0574129,18.7073922 36.7953421,18.9552408 C35.784381,17.8790563 34.3453919,17.2056258 32.7523128,17.2056258 C29.6925248,17.2056258 27.2115936,19.686557 27.2115936,22.7447145 C27.2115936,23.1792647 27.2605111,23.6024009 27.3559001,24.0084159 C22.7519505,23.7768732 18.6697873,21.5715104 15.9377463,18.2198481 C15.4616162,19.0384005 15.1876784,19.9898454 15.1876784,21.0040677 C15.1876784,22.9265244 16.1652126,24.6231455 17.6523038,25.6153549 C16.7440693,25.587635 15.8904594,25.3381559 15.1436526,24.9223574 C15.1428373,24.9451855 15.1428373,24.9680137 15.1428373,24.9932877 C15.1428373,27.6764112 17.0522494,29.9160162 19.5869899,30.4239427 C19.1214586,30.5503128 18.6314686,30.6187973 18.125988,30.6187973 C17.7697057,30.6187973 17.4223917,30.5829244 17.0848611,30.5185164 C17.790088,32.7189875 19.8348384,34.3210348 22.2603299,34.3666911 C20.3631472,35.8521517 17.9751591,36.737558 15.3800871,36.737558 C14.9333075,36.737558 14.4922349,36.712284 14.0585,36.6601054 C16.5100808,38.2319869 19.4206705,39.1483742 22.5497583,39.1483742" id="Fill-1" fill="#F4F6FF"></path>
            </g>
        </g>
    </g>
</svg>