<?xml version="1.0" encoding="UTF-8"?>
<svg width="48px" height="48px" viewBox="0 0 48 48" version="1.1" xmlns="http://www.w3.org/2000/svg" xmlns:xlink="http://www.w3.org/1999/xlink">
    <!-- Generator: Sketch 50.2 (55047) - http://www.bohemiancoding.com/sketch -->
    <title>Artboard</title>
    <desc>Created with Sketch.</desc>
    <defs></defs>
    <g id="Artboard" stroke="none" stroke-width="1" fill="none" fill-rule="evenodd">
        <g id="02" transform="translate(-1.000000, 0.000000)" fill="#AF43A7" fill-rule="nonzero">
            <rect id="Rectangle-3-Copy" transform="translate(24.000000, 24.000000) rotate(5.000000) translate(-24.000000, -24.000000) " x="2" y="2" width="44" height="44" rx="10"></rect>
        </g>
        <g id="Instagram_simple_icon" transform="translate(9.000000, 10.000000)" fill="#EBECF4" fill-rule="nonzero">
            <path d="M14,2.52616667 C17.737,2.52616667 18.1796111,2.54044444 19.6555556,2.60777778 C21.0201111,2.67005556 21.7611111,2.898 22.2543333,3.08966667 C22.8622273,3.31402889 23.4121101,3.67177735 23.8635556,4.13661111 C24.3283893,4.58805657 24.6861378,5.13793941 24.9105,5.74583333 C25.1021667,6.239 25.3301667,6.98005556 25.3923889,8.34461111 C25.4597222,9.82044444 25.474,10.2630556 25.474,14.0001667 C25.474,17.7372778 25.4597222,18.1797778 25.3923889,19.6557222 C25.3301111,21.0202778 25.1021111,21.7612778 24.9105,22.2545 C24.43966,23.4750788 23.4749122,24.4398267 22.2543333,24.9106667 C21.7611667,25.1023333 21.0201111,25.3303333 19.6555556,25.3925556 C18.18,25.4598889 17.7373889,25.4741667 14,25.4741667 C10.2626111,25.4741667 9.82016667,25.4598889 8.34444444,25.3925556 C6.97988889,25.3302778 6.23888889,25.1022778 5.74566667,24.9106667 C5.13777189,24.6863061 4.5878887,24.3285574 4.13644444,23.8637222 C3.67161215,23.4122756 3.31386391,22.8623931 3.0895,22.2545 C2.89783333,21.7613333 2.66983333,21.0202778 2.60761111,19.6557222 C2.54027778,18.1799444 2.526,17.7372778 2.526,14.0001667 C2.526,10.2630556 2.54027778,9.82055556 2.60761111,8.34461111 C2.66988889,6.98005556 2.89783333,6.23905556 3.0895,5.74583333 C3.31388726,5.13790911 3.67167469,4.58800575 4.13655556,4.13655556 C4.58800222,3.67172326 5.1378847,3.31397502 5.74577778,3.08961111 C6.23894444,2.89794444 6.98,2.66994444 8.34455556,2.60772222 C9.82038889,2.54038889 10.263,2.52611111 14.0001111,2.52611111 L14,2.52616667 Z M14.0001111,0.00438888889 C10.1991111,0.00438888889 9.72233333,0.0205 8.22977778,0.0886111111 C6.74005556,0.156611111 5.72272222,0.393166667 4.8325,0.739166667 C3.89864437,1.09059062 3.05268451,1.64148833 2.35361111,2.35344444 C1.64149455,3.05247401 1.09044302,3.89843718 0.738888889,4.83233333 C0.393166667,5.72261111 0.156611111,6.73994444 0.0888888889,8.22966667 C0.0205,9.72222222 0.00438888889,10.199 0.00438888889,14 C0.00438888889,17.801 0.0205,18.2777778 0.0888888889,19.7703333 C0.156888889,21.2600556 0.393444444,22.2773889 0.739444444,23.1676111 C1.09087,24.1014659 1.6417675,24.9474255 2.35372222,25.6465 C3.05279335,26.3584589 3.89875386,26.909357 4.83261111,27.2607778 C5.72288889,27.6067778 6.74022222,27.8433333 8.22988889,27.9113333 C9.72266667,27.9794444 10.1992778,27.9955556 14.0002222,27.9955556 C17.8011667,27.9955556 18.278,27.9794444 19.7705556,27.9113333 C21.2602778,27.8433333 22.2776111,27.6067778 23.1678333,27.2607778 C25.0477635,26.5336927 26.5339149,25.0475413 27.261,23.1676111 C27.607,22.2773333 27.8435556,21.26 27.9115556,19.7703333 C27.9796667,18.2775556 27.9957778,17.8009444 27.9957778,14 C27.9957778,10.1990556 27.9796667,9.72222222 27.9115556,8.22966667 C27.8435556,6.73994444 27.607,5.72261111 27.261,4.83238889 C26.9095792,3.89853164 26.3586811,3.05257113 25.6467222,2.3535 C24.9476346,1.64140194 24.1016131,1.09038742 23.1676667,0.738888889 C22.2773889,0.393166667 21.2600556,0.156611111 19.7703333,0.0888888889 C18.2777778,0.0205 17.801,0.00438888889 14,0.00438888889 L14.0001111,0.00438888889 Z" id="Shape"></path>
            <path d="M14,6.81305556 C10.0307602,6.81305556 6.81305556,10.0307602 6.81305556,14 C6.81305556,17.9692398 10.0307602,21.1869444 14,21.1869444 C17.9692398,21.1869444 21.1869444,17.9692398 21.1869444,14 C21.1869444,10.0307602 17.9692398,6.81305556 14,6.81305556 Z M14,18.6651667 C11.4235068,18.665136 9.33486843,16.5764561 9.33488889,13.999963 C9.33490934,11.4234698 11.4235809,9.33482311 14.0000741,9.33483333 C16.5765672,9.33484356 18.6652222,11.4235068 18.6652222,14 C18.6651915,16.5765094 16.5765094,18.6651667 14,18.6651667 Z" id="Shape"></path>
            <circle id="Oval" cx="21.4708889" cy="6.52911111" r="1.67944444"></circle>
        </g>
    </g>
</svg>